PathFileType	4	(X/Y/Z)	C:/Users/opensim2020/Desktop/walking_exp_matlab/subject02_walking10_straight_02.trc																																																																																																																															
DataRate	CameraRate	NumFrames	NumMarkers	Units	OrigDataRate	OrigDataStartFrame	OrigNumFrames																																																																																																																											
100	100	7	43	mm	100	1610	280																																																																																																																											
Frame#	Time	LFHD			RFHD			LBHD			RBHD			C7			T10			CLAV			STRN			RBAK			LSHO			LUPA			LELB			LFRM			LWRA			LWRB			LFIN			RSHO			RUPA			RELB			RFRM			RWRA			RWRB			RFIN			LASI			RASI			LPSI			RPSI			LTHI			LKNE			LTIB			LANK			LHEE			LTOE			RTHI			RKNE			RTIB			RANK			RHEE			RTOE			*39			*40			*41			*42		
		X1	Y1	Z1	X2	Y2	Z2	X3	Y3	Z3	X4	Y4	Z4	X5	Y5	Z5	X6	Y6	Z6	X7	Y7	Z7	X8	Y8	Z8	X9	Y9	Z9	X10	Y10	Z10	X11	Y11	Z11	X12	Y12	Z12	X13	Y13	Z13	X14	Y14	Z14	X15	Y15	Z15	X16	Y16	Z16	X17	Y17	Z17	X18	Y18	Z18	X19	Y19	Z19	X20	Y20	Z20	X21	Y21	Z21	X22	Y22	Z22	X23	Y23	Z23	X24	Y24	Z24	X25	Y25	Z25	X26	Y26	Z26	X27	Y27	Z27	X28	Y28	Z28	X29	Y29	Z29	X30	Y30	Z30	X31	Y31	Z31	X32	Y32	Z32	X33	Y33	Z33	X34	Y34	Z34	X35	Y35	Z35	X36	Y36	Z36	X37	Y37	Z37	X38	Y38	Z38	X39	Y39	Z39	X40	Y40	Z40	X41	Y41	Z41	X42	Y42	Z42	X43	Y43	Z43
																																																																																																																																		
211	2.1	547.69214	1735.99133	953.24548	543.47516	1714.73413	1095.14709	410.9794	1674.95801	941.57495	394.16992	1652.60645	1082.67078	350.00385	1529.25916	1007.93805	297.21857	1250.80383	1004.8941	488.1174	1459.34216	1000.69556	540.41547	1288.47998	1014.75677	288.68509	1353.23816	1067.67517	426.18228	1502.90381	829.6709	438.38333	1305.13904	738.23077	458.4382	1166.50989	718.8421	497.85315	1040.58301	705.09015	576.32916	929.72925	740.18085	534.85297	923.6875	702.15546	570.40784	867.3504	697.75757	421.62552	1494.71191	1196.02185	390.81174	1303.33936	1278.98914	405.75378	1157.28992	1297.28345	444.92859	1042.24121	1314.79688	503.66003	920.84662	1292.38232	458.5513	912.82019	1325.70605	502.11539	853.75867	1325.91284	546.01221	995.80817	888.28033	522.76013	980.08228	1142.24072	328.73996	1034.30371	951.47864	314.47922	1032.69019	1066.09619	488.80676	679.53198	841.46307	452.76428	477.61151	875.8916	394.92303	289.84909	880.92126	395.03174	68.79933	928.06158	358.08609	41.8341	980.03528	551.75378	31.89135	918.80688	476.1543	677.9491	1229.73962	514.2923	480.04083	1220.91956	402.21573	333.58591	1204.89819	316.78293	163.86183	1158.84961	286.41721	118.84368	1090.51062	413.05038	54.6921	1221.79956	451.05399	1809.14087	1042.43713	NaN	NaN	NaN	NaN	NaN	NaN	NaN	NaN	NaN
212	2.11	555.72357	1735.90637	953.48529	551.09961	1714.02209	1095.35168	418.96255	1674.89807	941.51331	401.67609	1652.61792	1082.55396	356.97794	1529.42664	1007.19427	303.83322	1251.07007	1004.69043	495.28711	1459.32715	1000.31622	547.27637	1288.3877	1014.05371	295.16116	1353.47375	1067.58984	433.90948	1503.30737	829.33167	448.59	1306.39636	737.12561	470.23462	1167.74365	717.32813	512.31458	1042.52234	703.86121	591.63782	932.74945	739.84717	550.14032	925.88654	701.23151	586.82056	870.21655	697.28955	428.16196	1494.35376	1195.51208	396.02228	1303.20691	1278.17004	410.56619	1157.10632	1296.76074	449.56042	1041.86621	1314.24438	508.11453	920.38635	1292.29797	462.98441	912.50861	1325.28723	506.55856	853.46161	1325.79163	551.57062	995.03851	886.90698	529.81207	980.52875	1141.28601	335.01028	1034.177	951.92816	320.90399	1033.30212	1066.50342	492.86777	678.98297	841.72968	455.12161	477.46643	876.01532	396.00177	290.05203	881.21533	395.15662	68.95918	928.2486	358.17133	42.10667	980.00592	551.77734	31.82155	918.67719	485.65521	678.87518	1229.67017	527.05316	480.76178	1220.63867	420.10724	330.18558	1205.81152	340.3479	157.52856	1161.19006	311.18588	110.937	1093.25049	441.63248	52.5982	1223.31458	459.06161	1808.83813	1042.34094	NaN	NaN	NaN	NaN	NaN	NaN	NaN	NaN	NaN
213	2.12	564.07953	1735.31592	954.28772	558.90326	1713.35217	1096.04858	426.81287	1675.10571	941.58789	409.09662	1652.57275	1082.50244	364.49976	1529.57678	1006.84833	310.48209	1251.26086	1004.62152	502.46005	1459.15833	1000.08459	554.08185	1288.14893	1013.4137	301.79913	1353.76782	1066.9624	441.58527	1503.58948	829.07275	458.6366	1307.27087	736.37708	482.10107	1168.8866	716.0105	526.12091	1044.27417	702.66565	606.29041	935.56567	739.52466	565.51178	928.16846	700.45453	602.66974	872.69678	696.9209	434.64673	1493.86804	1195.14514	401.24747	1302.95264	1277.56104	415.41815	1156.88574	1296.38342	454.00116	1041.33105	1314.00378	512.77509	919.96948	1292.50574	467.47314	912.065	1324.96033	510.89651	853.12744	1325.79419	557.24298	994.02454	885.64111	537.47009	980.96429	1140.62048	340.77008	1034.16064	952.20911	327.33795	1033.62805	1066.81165	496.61899	678.6792	841.88586	457.73117	477.27344	876.20856	397.48804	290.25082	881.35168	395.29831	69.0529	928.48071	358.22696	42.13505	980.39026	551.86865	31.77156	918.55493	495.15292	679.6629	1229.66748	539.67957	481.58496	1220.27124	437.88864	327.08505	1206.90808	364.18237	151.26137	1163.63574	336.05261	103.33655	1096.2323	470.29318	50.85464	1224.94116	467.52402	1808.70337	1043.22852	NaN	NaN	NaN	NaN	NaN	NaN	NaN	NaN	NaN
214	2.13	572.28052	1735.06799	954.77386	566.45178	1712.41272	1096.49353	434.65021	1675.27112	941.72882	416.64102	1652.36792	1082.42053	371.4993	1529.42908	1006.2002	317.15759	1251.38489	1004.56689	509.53668	1458.92798	999.91711	560.89081	1287.80933	1012.79968	308.5585	1353.72363	1066.29749	449.16309	1503.7478	828.88794	468.17203	1307.8999	735.76935	493.56039	1169.90027	714.79156	538.89435	1045.90503	701.86298	620.79364	938.33417	739.36755	580.63007	930.35211	699.89063	619.06287	875.73529	696.67694	441.2612	1493.19666	1194.95264	406.54929	1302.55273	1276.96667	420.30383	1156.57227	1296.34534	459.05283	1041.02869	1313.91089	517.86163	919.67413	1292.79724	472.01031	911.48218	1324.7168	515.37524	852.5636	1325.93481	562.92877	992.85687	884.59943	544.24432	981.12177	1140.078	346.75156	1034.05493	952.56335	333.71152	1033.69275	1067.11523	500.48685	678.20038	842.16156	460.58102	477.02789	876.38635	399.24344	290.37814	881.50195	395.44894	69.18024	928.65302	358.13513	42.27653	980.36493	551.95081	31.70127	918.42987	504.67606	680.42303	1229.70203	552.06854	482.37448	1219.93518	455.74753	323.93463	1207.94458	388.13309	145.30273	1166.25464	361.19995	96.00778	1099.33862	498.79666	49.47438	1226.78894	475.72549	1808.66248	1043.84741	NaN	NaN	NaN	NaN	NaN	NaN	NaN	NaN	NaN
215	2.14	580.27252	1734.16614	955.44312	574.02667	1711.58813	1097.02979	442.62375	1675.29651	941.83386	423.93961	1652.11841	1082.50378	378.70578	1529.5625	1006.177	323.77304	1251.37939	1004.6145	516.71844	1458.60376	999.81232	567.60138	1287.30212	1012.2973	315.36096	1353.41431	1065.77393	456.74472	1503.7926	828.80365	478.0798	1308.69434	735.25189	504.83438	1170.8103	713.76825	552.33575	1047.17676	701.23584	635.19537	941.07275	739.33459	595.6543	932.5824	699.33954	634.41217	878.47662	696.45612	447.88504	1492.56311	1194.75586	412.04663	1302.09961	1276.47058	425.38797	1155.98438	1295.9574	463.78339	1040.38245	1313.40186	522.65497	919.04944	1293.05945	476.53638	910.83801	1324.6427	519.90234	851.87708	1326.11792	568.67651	991.65625	883.77631	550.92627	981.05164	1139.7467	353.04901	1033.78198	953.06311	340.03497	1033.52527	1067.43884	504.34995	677.78192	842.4801	463.68152	476.75845	876.62775	401.17206	290.54922	881.62988	395.71295	69.31582	928.79541	358.5665	42.58093	980.56323	552.01215	31.62343	918.32874	514.18134	681.09979	1229.80005	564.22229	483.0228	1219.56592	473.34445	321.13077	1209.57458	412.21558	139.72168	1169.16443	386.43747	89.04458	1102.74829	527.2464	48.55479	1228.78943	483.70779	1808.06982	1044.21851	NaN	NaN	NaN	NaN	NaN	NaN	NaN	NaN	NaN
216	2.15	588.05719	1733.69043	955.93384	581.61566	1710.72546	1097.79419	450.37866	1675.17395	942.0448	431.3757	1651.81799	1082.72449	385.95334	1529.37695	1006.05646	330.40195	1251.28601	1004.73486	523.75226	1458.16614	999.8548	574.49786	1286.85254	1011.89893	321.94598	1353.43884	1065.63257	464.29312	1503.71985	828.81793	487.52109	1309.11792	734.82068	516.23425	1171.65405	713.03119	565.13239	1048.76868	700.54431	649.38635	943.76697	739.41925	610.28217	934.67236	699.02112	650.07648	881.0249	696.45624	454.40335	1491.93359	1194.70142	417.67496	1301.52649	1276.20581	430.50372	1155.49756	1295.95544	468.73798	1039.86133	1313.82996	527.74396	918.31555	1293.63049	481.16568	910.10712	1324.60022	524.56042	850.9801	1326.47144	574.58179	990.57538	883.13727	557.60223	980.83673	1139.51904	359.1694	1033.56213	953.46216	346.4342	1033.11536	1067.74573	508.21921	677.31104	842.85913	466.89655	476.42224	876.90417	403.12558	290.65918	881.89612	395.96271	69.4555	928.96692	358.92639	42.72236	980.9137	552.11255	31.54883	918.20026	523.64728	681.66278	1230.01123	576.08929	483.71994	1219.24426	490.93204	318.31448	1210.87024	436.32919	134.45375	1172.23242	411.81796	82.46996	1106.30481	555.35632	47.93241	1230.99609	491.80029	1807.66675	1044.90173	NaN	NaN	NaN	NaN	NaN	NaN	NaN	NaN	NaN
217	2.16	596.00153	1732.95947	956.76398	589.07526	1709.69971	1098.26746	458.37283	1675.03503	942.44983	438.69199	1651.41821	1082.96643	393.1608	1529.05627	1006.00592	337.05338	1251.13428	1004.83917	530.90405	1457.64893	999.92584	581.12701	1286.05151	1011.66943	328.95966	1352.90698	1064.8645	471.74301	1503.56665	828.92548	496.77197	1309.54309	734.47351	527.15631	1172.396	712.34619	578.03217	1050.20496	700.14282	663.24951	946.34705	739.62018	625.13287	936.82361	698.82941	665.21686	883.86139	696.54407	461.19455	1491.03235	1194.78809	423.4577	1300.86426	1275.9353	435.81277	1154.84106	1295.80969	473.70166	1038.99353	1313.84912	532.45203	917.48846	1293.98999	485.82635	909.32233	1324.6366	528.98077	850.20203	1326.84778	580.6012	989.64502	882.75916	564.17725	980.46228	1139.47009	365.01141	1033.22754	953.75208	352.83289	1032.52185	1068.01477	512.49213	676.81714	843.10516	470.09824	476.03601	877.29083	405.04715	290.79205	882.21149	396.2052	69.62419	929.19574	358.77393	43.0655	980.99902	552.07159	31.5081	918.03479	532.95978	682.0379	1230.29309	587.64874	484.19098	1218.78345	508.31821	315.77408	1212.32654	460.17126	129.46643	1175.41895	437.12543	76.28561	1110.15747	583.44244	47.96518	1233.33936	499.74524	1807.12378	1045.57178	NaN	NaN	NaN	NaN	NaN	NaN	NaN	NaN	NaN
